<?xml version="1.0" encoding="UTF-8" standalone="no"?>
<!-- Created with Inkscape (http://www.inkscape.org/) -->

<svg
   xmlns:dc="http://purl.org/dc/elements/1.1/"
   xmlns:cc="http://creativecommons.org/ns#"
   xmlns:rdf="http://www.w3.org/1999/02/22-rdf-syntax-ns#"
   xmlns:svg="http://www.w3.org/2000/svg"
   xmlns="http://www.w3.org/2000/svg"
   xmlns:sodipodi="http://sodipodi.sourceforge.net/DTD/sodipodi-0.dtd"
   xmlns:inkscape="http://www.inkscape.org/namespaces/inkscape"
   width="1200"
   height="1350"
   viewBox="0 0 1200 1350"
   id="svg4717"
   version="1.1"
   inkscape:version="0.91 r13725"
   sodipodi:docname="ChicagoCoast.svg">
  <defs
     id="defs4719" />
  <sodipodi:namedview
     id="base"
     pagecolor="#000000"
     bordercolor="#666666"
     borderopacity="1.0"
     inkscape:pageopacity="0"
     inkscape:pageshadow="2"
     inkscape:zoom="0.35"
     inkscape:cx="-46.428571"
     inkscape:cy="520"
     inkscape:document-units="px"
     inkscape:current-layer="layer1"
     showgrid="false"
     units="px"
     inkscape:window-width="1536"
     inkscape:window-height="811"
     inkscape:window-x="-8"
     inkscape:window-y="-8"
     inkscape:window-maximized="1" />
  <metadata
     id="metadata4722">
    <rdf:RDF>
      <cc:Work
         rdf:about="">
        <dc:format>image/svg+xml</dc:format>
        <dc:type
           rdf:resource="http://purl.org/dc/dcmitype/StillImage" />
        <dc:title></dc:title>
      </cc:Work>
    </rdf:RDF>
  </metadata>
  <g
     inkscape:label="Layer 1"
     inkscape:groupmode="layer"
     id="layer1"
     transform="translate(0,297.63784)">
    <path
       inkscape:connector-curvature="0"
       style="display:inline;opacity:0.49500002;fill:#00ff00;fill-opacity:1;stroke:#ffffff;stroke-width:1.17973065;stroke-opacity:1"
       d="m 1186.2518,-273.00783 -19.6016,1.4004 -1.4004,11.9023 -7.7011,2.0996 -0.7012,18.2032 -8.4004,1.4004 -8.4023,9.8007 -9.8008,-2.8007 -4.2012,5.6015 2.8008,5.6016 -7.7012,7.7012 2.1016,7 -4.2012,6.3007 -0.7012,7.002 -6.3007,1.4004 -19.6016,30.1035 -3.502,14.7031 6.3008,4.2012 -0.6992,10.5 5.6016,11.9023 -3.502,4.9004 -8.4004,-14.0019 -4.2011,-9.8008 -5.6016,0 -5.5996,6.3008 -21.0039,0 -13.3008,13.3027 -18.9043,28.003903 0.7012,9.1016 -9.8028,19.6015 -13.3007,1.4004 -16.80277,14.7032 -11.2011,18.2031 -12.6036,-2.1016 -7,-10.5019 2.8008,-21.002 6.3809,-12.2324 -948.832051,485.365197 0,622.64463 1078.871021,0 11.9864,-40.31642 5.414,-32.4825 -13.5937,-40.7832 5.3984,-45.3437 -0.7031,-0.1114 -27.3047,-16.1015 -9.1016,-21.7031 -14.0019,-36.4063 -5.6016,-11.9004 -9.8008,-31.5058 -2.0996,-17.502 -14.0019,-13.3027 -20.3047,-47.60741 1.4004,-26.6036 5.6016,-5.6015 0.6992,-31.5039 -2.7989,-31.5039 0,-21.0039 9.1016,-28.004 -1.4004,-8.4023 2.0996,-4.9004 -18.20307,-26.6035 0,-28.7051 -8.4004,-15.4023 4.1992,-18.9024 -6.3008,-26.6035 -4.9003,-22.4043 3.5,-32.20509 12.60347,-25.2031 7,-9.8008 4.9004,-30.8047 6.3007,-20.3046 14.7032,-23.1036 -2.8008,-32.2031 -5.6016,-16.8027 6.3028,-39.20701 11.9003,-30.8047 0,-11.9004 24.5039,-18.904297 8.4024,-14.002 -8.4024,-37.1054 7.7012,-24.5039 14.002,-58.8086 24.5039,-47.6075 14.0019,-33.605403 16.1036,-11.9004 0,-12.6016 7.7011,-4.9023 -1.4004,-14.7012 13.3008,-24.5039 0,-5.6016 4.2012,0 0,-5.5996 10.5019,0 0,-7.7012 -6.3007,-13.3027 4.2011,-2.8008 2.7989,7.002 7.0019,-4.9004 -6.3008,-10.502 0.6992,-16.8027 5.6016,0 2.8008,6.3008 7.7012,0 2.8007,-16.8027 -4.9023,-10.502 z"
       id="path4648" />
  </g>
</svg>
