<?xml version="1.0" encoding="UTF-8" standalone="no"?>
<!-- Created with Inkscape (http://www.inkscape.org/) -->

<svg
   xmlns:dc="http://purl.org/dc/elements/1.1/"
   xmlns:cc="http://creativecommons.org/ns#"
   xmlns:rdf="http://www.w3.org/1999/02/22-rdf-syntax-ns#"
   xmlns:svg="http://www.w3.org/2000/svg"
   xmlns="http://www.w3.org/2000/svg"
   xmlns:sodipodi="http://sodipodi.sourceforge.net/DTD/sodipodi-0.dtd"
   xmlns:inkscape="http://www.inkscape.org/namespaces/inkscape"
   width="700"
   height="400"
   viewBox="0 0 700.00001 400.00001"
   id="svg5843"
   version="1.1"
   inkscape:version="0.91 r13725"
   sodipodi:docname="EastUP.svg">
  <defs
     id="defs5845" />
  <sodipodi:namedview
     id="base"
     pagecolor="#000000"
     bordercolor="#666666"
     borderopacity="1.0"
     inkscape:pageopacity="0"
     inkscape:pageshadow="2"
     inkscape:zoom="0.7"
     inkscape:cx="-46.428571"
     inkscape:cy="213.31518"
     inkscape:document-units="px"
     inkscape:current-layer="layer1"
     showgrid="false"
     units="px"
     inkscape:window-width="1536"
     inkscape:window-height="811"
     inkscape:window-x="-8"
     inkscape:window-y="-8"
     inkscape:window-maximized="1" />
  <metadata
     id="metadata5848">
    <rdf:RDF>
      <cc:Work
         rdf:about="">
        <dc:format>image/svg+xml</dc:format>
        <dc:type
           rdf:resource="http://purl.org/dc/dcmitype/StillImage" />
        <dc:title></dc:title>
      </cc:Work>
    </rdf:RDF>
  </metadata>
  <g
     inkscape:label="Layer 1"
     inkscape:groupmode="layer"
     id="layer1"
     transform="translate(0,-652.36216)">
    <path
       inkscape:connector-curvature="0"
       style="display:inline;opacity:0.49500002;fill:#00ff00;fill-opacity:1;stroke:#ffffff;stroke-width:1.17973065;stroke-opacity:1"
       d="m 445.61659,660.72699 -7.0997,2.36719 -15.9765,1.18359 -17.1602,3.55078 -5.916,-2.95898 -12.4258,1.77539 -8.2851,0.5918 -30.1778,15.97656 -12.4257,7.6914 -7.0997,5.32618 0,4.73437 -11.8359,0 -3.5488,-2.36719 8.2832,-2.95898 8.2851,-5.32617 5.9161,-4.14063 -10.6504,3.54883 -6.5098,3.55078 -13.6094,-0.5918 -42.0117,-2.95898 -18.9336,-0.5918 -10.6523,-0.59179 -7.6914,3.55078 -9.4668,2.95898 0,-4.73437 -24.2618,5.32617 -7.0996,4.73437 -7.6933,-5.91796 -33.7266,20.11914 -11.2441,9.46679 -20.1172,10.0586 -9.4688,0 -23.667897,24.26172 -10.0586,15.38281 -2.3672,5.91797 -3.7988,-2.53321 -34.795,117.57813 8.8477,64.13867 3.834,-1.02148 3.5,11.90234 14.7031,0 7.7012,-7.70117 11.2011,-13.30274 11.2012,7.70118 -1.4004,13.30273 -19.6015,16.10156 -2.8008,13.30274 -9.1016,10.50001 0,7.7012 -10.5019,1.4004 0,9.1015 21.7031,17.504 4.9004,-0.7012 -4.9004,-19.6035 9.1016,0 0.6992,-12.6016 7.7011,-2.8008 5.6016,-9.80079 7.701197,0 4.9004,-7 8.4023,0.69921 3.5,-9.80078 10.502,2.09961 6.3007,-5.60156 5.6016,-35.00391 18.2012,-14.70312 25.9043,0 14.7031,-2.80078 30.8047,13.30273 6.3008,-2.80078 -5.6016,-6.30078 7.002,-4.90039 11.2011,1.40039 4.9004,-5.60156 30.8047,7.00195 7.7012,-2.10156 30.1055,-43.40625 16.8007,3.5 3.5039,-4.19727 7,0 4.2012,7 9.8008,-2.80078 25.2051,9.80273 30.1035,8.4004 20.3027,7.70117 20.3047,26.60547 14.9961,8.2539 10.834,-21.29297 16.3164,0 6.3613,-13.30273 4.7344,-8.28516 4.7344,-6.50781 5.916,7.09961 7.6933,2.95898 8.2833,-0.59179 5.3261,4.73437 6.5078,6.50782 7.6934,4.73437 8.2832,0 3.5508,5.32617 5.916,3.54883 10.6523,1.18359 -4.7343,-11.24218 2.9589,-1.1836 1.1836,-4.73437 7.6914,0.59179 7.1016,5.91797 0.5918,-5.32617 8.2832,3.55078 5.3262,4.73438 4.1406,0 -1.1816,-5.32617 7.0996,2.36718 14.2011,-1.18359 14.2012,6.50976 13.0176,2.95704 4.1426,-5.91602 8.875,1.18359 4.1426,-2.95898 4.7343,4.14258 -1.1836,-17.16016 -16.5683,-5.32617 -12.4258,-14.20117 -7.1016,-7.09961 5.918,-9.46875 4.1406,-2.36524 -15.3828,-5.32617 -5.3262,-9.46679 -4.7343,0.59179 -7.6914,-4.14258 -1.7754,5.32422 -9.4668,3.55078 -3.5508,-3.55078 -2.959,0 0,-14.79297 8.2852,-3.54882 1.7734,-5.32618 5.3262,2.36719 -3.5508,-8.875 -5.916,-7.10156 0,-18.93555 -1.7754,-7.6914 -4.1426,-5.91797 -2.3672,-14.20117 -5.3242,-10.0586 -3.5508,-10.05859 -10.0586,-2.95899 -11.2441,1.1836 -15.3848,8.875 0,7.10156 -4.1406,4.73242 -3.5508,-5.91601 -14.2012,8.2832 -8.875,1.18359 0,-4.73437 0,-5.32422 -7.6933,-11.24219 -13.0176,-1.18359 -9.4668,4.14062 -11.2441,7.10157 -12.4258,2.36718 -6.5078,-8.28515 -13.6094,-0.5918 -3.5508,-4.73242 -6.5097,4.14062 -10.6504,-1.77343 -9.4668,-10.65235 1.7754,-9.4668 3.5507,-4.14257 0,-42.01172 2.3653,-5.91602 0,-7.10156 12.4258,-15.38477 0,-2.95898 z"
       id="path6863" />
  </g>
</svg>
