<?xml version="1.0" encoding="UTF-8" standalone="no"?>
<!-- Created with Inkscape (http://www.inkscape.org/) -->

<svg
   xmlns:dc="http://purl.org/dc/elements/1.1/"
   xmlns:cc="http://creativecommons.org/ns#"
   xmlns:rdf="http://www.w3.org/1999/02/22-rdf-syntax-ns#"
   xmlns:svg="http://www.w3.org/2000/svg"
   xmlns="http://www.w3.org/2000/svg"
   xmlns:sodipodi="http://sodipodi.sourceforge.net/DTD/sodipodi-0.dtd"
   xmlns:inkscape="http://www.inkscape.org/namespaces/inkscape"
   width="1300"
   height="1450"
   viewBox="0 0 1300 1450"
   id="svg5280"
   version="1.1"
   inkscape:version="0.91 r13725"
   sodipodi:docname="WestUPAndWisconsin.svg">
  <defs
     id="defs5282" />
  <sodipodi:namedview
     id="base"
     pagecolor="#000000"
     bordercolor="#666666"
     borderopacity="1.0"
     inkscape:pageopacity="0"
     inkscape:pageshadow="2"
     inkscape:zoom="0.35"
     inkscape:cx="-46.428571"
     inkscape:cy="783.17811"
     inkscape:document-units="px"
     inkscape:current-layer="layer1"
     showgrid="false"
     units="px"
     inkscape:window-width="1536"
     inkscape:window-height="811"
     inkscape:window-x="-8"
     inkscape:window-y="-8"
     inkscape:window-maximized="1" />
  <metadata
     id="metadata5285">
    <rdf:RDF>
      <cc:Work
         rdf:about="">
        <dc:format>image/svg+xml</dc:format>
        <dc:type
           rdf:resource="http://purl.org/dc/dcmitype/StillImage" />
        <dc:title></dc:title>
      </cc:Work>
    </rdf:RDF>
  </metadata>
  <g
     inkscape:label="Layer 1"
     inkscape:groupmode="layer"
     id="layer1"
     transform="translate(0,397.63784)">
    <path
       inkscape:connector-curvature="0"
       style="display:inline;opacity:0.49500002;fill:#00ff00;fill-opacity:1;stroke:#ffffff;stroke-width:1.17973065;stroke-opacity:1"
       d="m 948.94178,-368.39383 -23.22265,5.6875 -17.53516,2.84375 -1.89453,7.10938 -45.02539,19.42969 -9.00391,17.0625 -15.64062,18.95703 -7.10743,6.16211 -18.00976,7.10742 -23.69727,18.48437 -18.00976,13.26954 -12.32227,9.00585 -7.58203,13.26954 -4.74023,13.74414 -11.375,8.53125 -13.26953,0 -6.63477,3.3164 -11.84766,-2.84375 -19.43164,24.17188 -26.54101,17.06054 -25.5918,11.375 -35.54492,2.84375 -7.58399,2.84375 0,-4.74023 -35.54492,3.31836 -18.00976,13.26953 -19.9043,19.90625 -17.53516,16.58789 -22.27539,8.056642 -36.96679,15.63867 -10.42578,-0.94726 -23.69727,14.6914 -13.26953,-10.42578 -10.90039,3.79102 -48.3418,-45.023442 -2.36914,2.84375 13.26953,12.322272 1.42188,6.16015 -7.58399,7.58399 -1.89453,-3.79102 5.21289,-4.74023 -3.79101,-1.89649 -25.11914,17.0625 -14.69141,7.58203 -5.6875,-6.16015 8.53125,-18.95703 10.42578,-8.056642 -5.77148,-89.8711 -6.94336,6.94336 -12.5,-2.77734 -8.68164,9.02734 -10.06836,11.45899 -10.0625,1.23632 -2.3711,8.53125 -5.21289,-0.47461 -0.47461,-6.63476 -9.95117,9.95312 -5.6875,-3.31836 1.42188,-9.0039 -13.74415,16.11328 -17.0625,2.84375 -12.79492,13.27148 -3.31836,-4.74023 -32.22656,14.69141 -7.58398,-0.47266 -56.871089,21.32617 -28.4375,3.79102 -21.326172,-14.2168 -11.375,-13.74414 0.01367,-0.0137 -12.69336,-1.58594 0,1165.86716 949.630851,-485.77342 1.22071,-2.3398 0,-8.4004 10.50195,-17.5019 2.80078,-14.7032 18.90234,-19.6035 -11.20117,-0.6992 0,-4.2012 10.50196,0 -0.70118,-11.9023 9.80274,-9.8008 33.6035,-2.8008 7.7012,-7 -0.6992,-19.6035 7.7012,-14.7031 -4.9004,-5.5996 1.4004,-10.502 30.8047,-34.3047 18.9023,-34.3047 8.4004,-18.9043 4.9004,-0.6992 0,-7.0019 20.3047,-50.40628 11.9004,-16.80274 16.1035,-9.80273 14.7011,-19.60156 -4.1992,-9.10157 5.5996,-21.70312 7.7012,-7.70117 0,-9.80274 10.502,-1.40039 1.4004,6.30078 -11.9024,13.30274 -4.2012,20.30273 8.4024,0 0,31.50586 5.6015,3.5 2.7989,-11.20117 6.3008,0 6.3027,-4.90234 12.6015,0 0.6993,-13.30078 11.9023,-10.50196 1.4004,-12.60156 -2.8008,-12.60156 5.6934,-1.51758 -8.8926,-64.47852 34.9434,-118.082028 -2.4297,-1.61914 -0.5938,-17.75 5.3262,-10.65234 1.1836,-9.4668 -4.1426,-5.32617 -11.2422,0.5918 0,23.07812 -5.916,8.2832 -7.1016,-1.77539 -8.875,0 -7.1015,8.28516 -3.5508,2.36719 -7.6914,-3.55078 -2.959,-7.69336 -10.0586,0 -4.1426,-3.54883 -0.5918,-10.06055 -7.0996,-5.91601 -4.1425,-2.95899 -15.3848,4.73438 -4.7012,1.20312 -4.7012,7.45313 -6.4375,0.16211 -2.9648,-4.00391 -3.875,-1.7832 -6.3066,6.20507 -24.3614,-0.39453 -9.7773,-0.74023 -4.916,-7.33789 -3.5274,-13.93555 -3.875,-12.19922 -11.539,-8.65429 -1.9219,-5.76758 -8.6543,-1.92383 -2.8848,-7.21094 -0.4804,-6.730472 -12.9805,-10.57812 -3.3672,-18.26953 -19.2305,-16.34571 0,-5.76953 -6.25,4.32813 6.8106,9.96094 -5.6817,2.05078 -4.9882,-3.50586 -1.168,-4.89453 -3.9473,-4.19922 -1.5488,-7.42578 -4.8614,-3.04493 -4.8066,-6.25 -15.38476,-1.4414 -9.13477,-7.21289 -24.51953,1.92383 -13.46094,-5.76954 -31.73047,8.6543 -14.42383,22.5957 c -0.559,0.20127 -1.10572,0.44295 -1.67773,0.60352 -0.31355,0.088 -1.07377,0 -1.42188,0 -0.15796,0 -0.47265,0.15798 -0.47265,0 0,-0.15797 0.31472,0 0.47265,0 l 9.00586,-18.48242 8.05664,-11.84961 16.11329,-16.11328 -15.63868,7.58398 -9.95312,3.31641 -24.64453,24.64453 -4.26563,-2.84375 -6.63476,6.63477 2.36914,5.21484 -8.05664,7.58203 -4.26563,12.79687 -7.58203,5.2129 -3.31836,-3.31836 7.10938,-9.00391 -0.94727,-14.69141 -1.42187,-18.00976 5.6875,-17.53516 0.94726,-15.64062 2.84375,-0.47461 0.47266,4.26562 13.74414,-12.79492 3.31836,-18.48437 13.74414,-8.53125 0,-10.42579 12.79687,-6.1621 0,-12.79493 5.21289,-7.58398 13.26954,-2.84375 21.80078,-26.53906 27.48828,-15.64063 -4.73828,-9.47851 -16.58789,0.94726 0,-7.10742 13.26953,2.84375 7.58203,-3.31836 33.65036,0.47461 5.2129,-5.21484 11.8477,0.94921 0,-5.6875 -3.791,-12.79687 -12.3223,-1.42188 -1.8945,-4.73828 -20.85355,-0.47461 -35.07227,0 z"
       id="path4658" />
  </g>
</svg>
