<?xml version="1.0" encoding="UTF-8" standalone="no"?>
<!-- Created with Inkscape (http://www.inkscape.org/) -->

<svg
   xmlns:dc="http://purl.org/dc/elements/1.1/"
   xmlns:cc="http://creativecommons.org/ns#"
   xmlns:rdf="http://www.w3.org/1999/02/22-rdf-syntax-ns#"
   xmlns:svg="http://www.w3.org/2000/svg"
   xmlns="http://www.w3.org/2000/svg"
   xmlns:sodipodi="http://sodipodi.sourceforge.net/DTD/sodipodi-0.dtd"
   xmlns:inkscape="http://www.inkscape.org/namespaces/inkscape"
   width="2500"
   height="2500"
   viewBox="0 0 2500 2500"
   id="svg3813"
   version="1.1"
   inkscape:version="0.91 r13725"
   sodipodi:docname="Wisconson.svg">
  <defs
     id="defs3815" />
  <sodipodi:namedview
     id="base"
     pagecolor="#000000"
     bordercolor="#666666"
     borderopacity="1.0"
     inkscape:pageopacity="0"
     inkscape:pageshadow="2"
     inkscape:zoom="0.12374369"
     inkscape:cx="2176.4286"
     inkscape:cy="520"
     inkscape:document-units="px"
     inkscape:current-layer="layer1"
     showgrid="false"
     units="px"
     inkscape:window-width="1920"
     inkscape:window-height="1028"
     inkscape:window-x="-8"
     inkscape:window-y="-8"
     inkscape:window-maximized="1" />
  <metadata
     id="metadata3818">
    <rdf:RDF>
      <cc:Work
         rdf:about="">
        <dc:format>image/svg+xml</dc:format>
        <dc:type
           rdf:resource="http://purl.org/dc/dcmitype/StillImage" />
        <dc:title></dc:title>
      </cc:Work>
    </rdf:RDF>
  </metadata>
  <g
     inkscape:label="Layer 1"
     inkscape:groupmode="layer"
     id="layer1"
     transform="translate(0,1447.638)">
    <path
       style="display:inline;opacity:0.61278196;fill:#ffffff;fill-opacity:1;stroke:#ffffff;stroke-width:1.17973065;stroke-opacity:1"
       d="m 1149.0513,-1144.9415 -23.2227,5.6875 -17.5351,2.8437 -1.8946,7.1094 -45.0254,19.4298 -9.0039,17.0625 -15.6406,18.957 -7.1074,6.1622 -18.0098,7.1074 -23.69725,18.4844 -18.00976,13.2695 -12.32227,9.0058 -7.58203,13.2696 -4.74023,13.74407 -11.375,8.5313 -13.26953,0 -6.63477,3.3164 -11.84766,-2.8438 -19.43164,24.1719 -26.54101,17.0605 -25.5918,11.375 -35.54492,2.8438 -7.58399,2.8437 0,-4.7402 -35.54492,3.3184 -18.00976,13.2695 -19.9043,19.9063 -17.53516,16.5878 -22.27539,8.0567 -36.96679,15.6387 -10.42578,-0.9473 -23.69727,14.6914 -13.26953,-10.4258 -10.90039,3.791 -48.3418,-45.0234 -2.36914,2.8437 13.26953,12.3223 1.42188,6.1602 -7.58399,7.584 -1.89453,-3.7911 5.21289,-4.7402 -3.79101,-1.8965 -25.11914,17.0625 -14.69141,7.582 -5.6875,-6.1601 8.53125,-18.957 10.42578,-8.0567 -5.77148,-89.8711 -6.94336,6.9434 -12.5,-2.7774 -8.68164,9.0274 -10.06836,11.459 -10.0625,1.2363 -2.3711,8.5312 -5.21289,-0.4746 -0.47461,-6.6347 -9.95117,9.9531 -5.6875,-3.3184 1.42188,-9.0039 -13.74415,16.1133 -17.0625,2.8438 -12.79492,13.2714 -3.31836,-4.7402 -32.22656,14.6914 -7.58398,-0.4726 -56.87109,21.3261 -28.4375,3.7911 -21.32617,-14.2168 -11.375,-13.7442 0.0137,-0.014 -12.69336,-1.5859 0,1789.6348 1078.87106,0 11.9864,-40.3164 5.414,-32.4825 -13.5937,-40.7832 5.3984,-45.3437 -0.7031,-0.1114 -27.3047,-16.1015 -9.1016,-21.7031 -14.0019,-36.4063 -5.6016,-11.9004 -9.8008,-31.5058 -2.0996,-17.502 -14.0019,-13.3027 -20.3047,-47.6074 1.4004,-26.6036 5.6015,-5.6015 0.6993,-31.5039 -2.7989,-31.5039 0,-21.0039 9.1016,-28.004 -1.4004,-8.4023 2.0996,-4.9004 -18.2031,-26.6035 0,-28.7051 -8.4004,-15.4023 4.1992,-18.9024 -6.3008,-26.6035 -4.9004,-22.4043 3.5,-32.2051 12.6036,-25.2031 7,-9.8008 4.9003,-30.8047 6.3008,-20.3046 14.7032,-23.103605 -2.8008,-32.2031 -5.6016,-16.8027 6.3028,-39.2069999 11.9003,-30.8047051 0,-11.9004 24.5039,-18.9043 8.4024,-14.002 -8.4024,-37.1054 7.7012,-24.5039 14.002,-58.8086 24.5039,-47.60749 14.0019,-33.6054 16.1036,-11.9004 0,-12.6016 7.7011,-4.9023 -1.4004,-14.7012 13.3008,-24.5039 0,-5.6016 4.2012,0 0,-5.5996 10.5019,0 0,-7.7012 -6.3007,-13.3027 4.2011,-2.8008 2.7989,7.002 7.0019,-4.9004 -6.3008,-10.502 0.6992,-16.8027 5.6016,0 2.8008,6.3008 7.7012,0 2.8007,-16.8027 -4.9023,-10.502 -19.6016,1.4004 -1.4004,11.9023 -7.7011,2.0996 -0.7012,18.2032 -8.4004,1.4004 -8.4023,9.8007 -9.8008,-2.8007 -4.2012,5.6015 2.8008,5.6016 -7.7012,7.7012 2.1016,7 -4.2012,6.3007 -0.7012,7.002 -6.3007,1.4004 -19.6016,30.1035 -3.502,14.7031 6.3008,4.2012 -0.6992,10.5 5.6016,11.9023 -3.502,4.9004 -8.4004,-14.0019 -4.2011,-9.8008 -5.6016,0 -5.5996,6.3008 -21.0039,0 -13.3008,13.3027 -18.9043,28.0039 0.7012,9.1016 -9.8028,19.6015 -13.3008,1.4004 -16.8027,14.70319 -11.2012,18.2031 -12.6035,-2.1016 -7,-10.5019 2.8008,-21.00199 8.4004,-16.1035 0,-8.4004 10.5019,-17.5019 2.8008,-14.7032 18.9024,-19.6035 -11.2012,-0.6992 0,-4.2012 10.502,0 -0.7012,-11.9023 9.8027,-9.8008 33.6035,-2.8008 7.7012,-7 -0.6992,-19.6035 7.7012,-14.7031 -4.9004,-5.5996 1.4004,-10.502 30.8047,-34.3047 18.9023,-34.3047 8.4004,-18.9043 4.9004,-0.6992 0,-7.0019 20.3047,-50.4063 11.9004,-16.8027 16.1035,-9.8028 14.7011,-19.6015 -4.1992,-9.1016 5.5996,-21.7031 7.7012,-7.7012 0,-9.8027 10.502,-1.4004 1.4004,6.3008 -11.9024,13.3027 -4.2012,20.3028 8.4024,0 0,31.5058 5.6015,3.5 2.7989,-11.2012 6.3008,0 6.3027,-4.9023 12.6015,0 0.6993,-13.3008 11.9023,-10.5019 1.4004,-12.6016 -2.8008,-12.6016 10.502,-2.8008 3.5,11.9024 14.7031,0 7.7012,-7.7012 11.2011,-13.3027 11.2012,7.7012 -1.4004,13.3027 -19.6015,16.1016 -2.8008,13.3027 -9.1016,10.5 0,7.7012 -10.5019,1.4004 0,9.1015 21.7031,17.5039 4.9004,-0.7011 -4.9004,-19.6036 9.1016,0 0.6992,-12.6015 7.7011,-2.8008 5.6016,-9.8008 7.7012,0 4.9004,-7 8.4023,0.6992 3.5,-9.8007 10.502,2.0996 6.3007,-5.6016 5.6016,-35.0039 18.2012,-14.7031 25.9043,0 14.7031,-2.8008 30.8047,13.3027 6.3008,-2.8008 -5.6016,-6.3008 7.002,-4.9003 11.2011,1.4003 4.9004,-5.6015 30.8047,7.0019 7.7012,-2.1015 30.1055,-43.4063 16.8007,3.5 3.5039,-4.1972 7,0 4.2012,7 9.8008,-2.8008 25.2051,9.8027 30.1035,8.4004 20.3027,7.7012 20.3047,26.6054 14.9961,8.2539 10.834,-21.2929 16.3164,0 6.3613,-13.3028 4.7344,-8.2851 4.7344,-6.5078 5.916,7.0996 7.6933,2.959 8.2833,-0.5918 5.3261,4.7343 6.5078,6.5079 7.6934,4.7343 8.2832,0 3.5508,5.3262 5.916,3.5488 10.6523,1.1836 -4.7343,-11.2422 2.9589,-1.1836 1.1836,-4.7343 7.6914,0.5918 7.1016,5.9179 0.5918,-5.3261 8.2832,3.5507 5.3262,4.7344 4.1406,0 -1.1816,-5.3261 7.0996,2.3671 14.2011,-1.1836 14.2012,6.5098 13.0176,2.957 4.1426,-5.916 8.875,1.1836 4.1426,-2.959 4.7343,4.1426 -1.1836,-17.1601 -16.5683,-5.3262 -12.4258,-14.2012 -7.1016,-7.0996 5.918,-9.4687 4.1406,-2.3653 -15.3828,-5.3262 -5.3262,-9.4667 -4.7343,0.5917 -7.6914,-4.1425 -1.7754,5.3242 -9.4668,3.5508 -3.5508,-3.5508 -2.959,0 0,-14.793 8.2852,-3.5488 1.7734,-5.3262 5.3262,2.3672 -3.5508,-8.875 -5.916,-7.1016 0,-18.9355 -1.7754,-7.6914 -4.1426,-5.918 -2.3672,-14.2011 -5.3242,-10.0586 -3.5508,-10.0586 -10.0586,-2.959 -11.2441,1.1836 -15.3848,8.875 0,7.1015 -4.1406,4.7325 -3.5508,-5.9161 -14.2012,8.2832 -8.875,1.1836 0,-4.7343 0,-5.3243 -7.6933,-11.2421 -13.0176,-1.1836 -9.4668,4.1406 -11.2441,7.1016 -12.4258,2.3671 -6.5078,-8.2851 -13.6094,-0.5918 -3.5508,-4.7324 -6.5097,4.1406 -10.6504,-1.7734 -9.4668,-10.6524 1.7754,-9.4668 3.5507,-4.1426 0,-42.0117 2.3653,-5.916 0,-7.1016 12.4258,-15.3847 0,-2.959 -7.0997,2.3672 -15.9765,1.1836 -17.1602,3.5507 -5.916,-2.9589 -12.4258,1.7754 -8.2851,0.5918 -30.1778,15.9765 -12.4257,7.6914 -7.0997,5.3262 0,4.7344 -11.8359,0 -3.5488,-2.3672 8.2832,-2.959 8.2851,-5.3262 5.9161,-4.1406 -10.6504,3.5488 -6.5098,3.5508 -13.6094,-0.5918 -42.0117,-2.959 -18.9336,-0.5918 -10.6523,-0.5918 -7.6914,3.5508 -9.4668,2.959 0,-4.7344 -24.2618,5.3262 -7.0996,4.7344 -7.6933,-5.918 -33.7266,20.1191 -11.2441,9.4668 -20.1172,10.0586 -9.4688,0 -23.6679,24.2618 -10.0586,15.3828 -2.3672,5.9179 -7.0996,-4.7343 -0.5938,-17.75 5.3262,-10.6524 1.1836,-9.4668 -4.1426,-5.3262 -11.2422,0.5918 0,23.0782 -5.916,8.2832 -7.1016,-1.7754 -8.875,0 -7.1015,8.2851 -3.5508,2.3672 -7.6914,-3.5508 -2.959,-7.6933 -10.0586,0 -4.1426,-3.5488 -0.5918,-10.0606 -7.0996,-5.916 -4.1425,-2.959 -15.3848,4.7344 -4.7012,1.2031 -4.7012,7.4531 -6.4375,0.1621 -2.9648,-4.0039 -3.875,-1.7832 -6.3066,6.2051 -24.3614,-0.3945 -9.7773,-0.7403 -4.916,-7.3378 -3.5274,-13.9356 -3.875,-12.1992 -11.539,-8.6543 -1.9219,-5.7676 -8.6543,-1.9238 -2.8848,-7.211 -0.4804,-6.7304 -12.9805,-10.5781 -3.3672,-18.2696 -19.2305,-16.3457 0,-5.7695 -6.25,4.3281 6.8106,9.961 -5.6817,2.0507 -4.9882,-3.5058 -1.168,-4.8946 -3.9473,-4.1992 -1.5488,-7.4258 -4.8613,-3.0449 -4.8067,-6.25 -15.3847,-1.4414 -9.1348,-7.2129 -24.5195,1.9239 -13.461,-5.7696 -31.7305,8.6543 -14.4238,22.5957 c -0.559,0.2013 -1.1057,0.443 -1.6777,0.6035 -0.3136,0.088 -1.0738,0 -1.4219,0 -0.158,0 -0.4726,0.158 -0.4726,0 0,-0.1579 0.3147,0 0.4726,0 l 9.0059,-18.4824 8.0566,-11.8496 16.1133,-16.1133 -15.6387,7.584 -9.9531,3.3164 -24.6445,24.6445 -4.2657,-2.8437 -6.6347,6.6348 2.3691,5.2148 -8.0566,7.582 -4.2657,12.7969 -7.582,5.2129 -3.3183,-3.3184 7.1093,-9.0039 -0.9472,-14.6914 -1.4219,-18.0097 5.6875,-17.5352 0.9473,-15.6406 2.8437,-0.4746 0.4727,4.2656 13.7441,-12.7949 3.3184,-18.48437 13.7441,-8.5312 0,-10.4258 12.7969,-6.1621 0,-12.795 5.2129,-7.584 13.2695,-2.8437 21.8008,-26.5391 27.4883,-15.6406 -4.7383,-9.4785 -16.5879,0.9473 0,-7.1076 13.2695,2.8439 7.5821,-3.3185 33.6503,0.4746 5.2129,-5.2148 11.8477,0.9492 0,-5.6875 -3.791,-12.7969 -12.3223,-1.4218 -1.8945,-4.7383 -20.8535,-0.4746 -35.0723,0 z"
       id="path6863"
       inkscape:connector-curvature="0" />
  </g>
</svg>
